<?xml version="1.0" standalone="no"?>
<!DOCTYPE svg PUBLIC "-//W3C//DTD SVG 20010904//EN"
 "http://www.w3.org/TR/2001/REC-SVG-20010904/DTD/svg10.dtd">
<svg version="1.0" xmlns="http://www.w3.org/2000/svg"
 width="300.000000pt" height="450.000000pt" viewBox="0 0 300.000000 450.000000"
 preserveAspectRatio="xMidYMid meet">

<g transform="translate(0.000000,450.000000) scale(0.100000,-0.100000)"
fill="#000000" stroke="none">
<path d="M1340 3960 c-36 -5 -86 -17 -111 -28 -57 -25 -221 -129 -232 -148 -4
-7 -13 -19 -20 -26 -6 -7 -13 -20 -14 -28 -7 -68 -60 -142 -117 -166 -25 -11
-50 -29 -56 -42 -6 -14 -15 -20 -23 -16 -6 4 -9 4 -5 -1 4 -4 2 -15 -5 -23 -6
-9 -7 -13 -1 -9 7 4 11 -13 11 -51 l0 -57 -12 45 c-16 56 -19 38 -4 -30 6 -27
15 -50 20 -50 4 0 6 -6 4 -12 -3 -7 -6 -43 -8 -80 -3 -59 -7 -72 -33 -99 -29
-31 -29 -31 -4 -23 14 5 55 8 91 6 l65 -3 13 107 c7 59 18 123 26 143 38 102
73 176 83 175 7 -1 21 -2 31 -2 23 -2 75 -49 84 -75 6 -17 3 -16 -31 3 -50 28
-97 24 -98 -8 -1 -13 7 -27 17 -33 16 -8 19 -6 19 11 0 27 28 26 32 -2 3 -20
8 -23 40 -21 21 1 38 -3 41 -10 2 -7 2 -2 0 10 -2 17 1 21 12 17 8 -3 12 -11
9 -16 -4 -6 3 -5 15 1 23 13 27 26 11 36 -6 4 -8 10 -5 15 11 17 -15 50 -68
85 -28 19 -60 35 -70 35 -16 0 -15 7 14 58 56 100 114 138 198 128 30 -4 60
-11 67 -17 9 -7 19 -7 33 0 32 18 53 14 46 -8 -6 -20 40 -70 107 -116 47 -32
86 -81 116 -145 23 -49 26 -69 29 -189 2 -125 1 -138 -21 -180 -13 -25 -27
-56 -29 -69 -5 -20 -3 -22 11 -10 9 7 21 19 25 26 12 19 30 14 24 -7 -3 -15
-1 -18 11 -14 11 5 14 2 9 -10 -8 -21 6 -22 23 -2 25 30 31 14 9 -24 -26 -47
-54 -64 -100 -59 -30 3 -34 6 -34 30 1 15 -2 24 -6 20 -3 -4 -31 -38 -61 -77
-96 -121 -147 -158 -238 -170 -49 -7 -87 -20 -100 -36 -3 -3 -12 -9 -20 -12
-27 -10 64 0 110 13 73 20 146 67 209 137 32 36 63 63 68 60 5 -4 8 -30 7 -59
-6 -98 34 -166 115 -193 25 -8 80 -21 121 -30 41 -8 87 -20 103 -26 l27 -11
-30 -17 c-47 -25 -165 -147 -193 -199 -14 -26 -44 -101 -67 -167 -60 -174
-125 -303 -222 -446 -113 -166 -150 -232 -152 -275 -1 -29 -9 -42 -41 -67 -65
-51 -169 -153 -187 -184 -10 -18 -13 -34 -8 -43 10 -16 41 2 103 59 46 43 67
45 85 9 20 -43 -7 -95 -74 -141 -31 -22 -53 -41 -50 -44 3 -4 32 15 65 40 55
44 61 46 76 31 9 -9 19 -29 22 -45 l6 -29 167 0 c325 0 678 30 795 67 59 18
67 24 70 55 2 13 8 50 14 83 6 33 10 76 9 95 0 19 2 44 6 56 11 34 -32 85
-101 120 -34 16 -93 56 -131 88 -113 92 -177 188 -221 331 -25 80 -63 391 -54
438 7 38 48 97 67 97 8 0 20 8 27 18 13 16 12 16 -6 3 -11 -7 -8 -2 7 12 30
28 106 48 155 40 l33 -5 -14 38 c-7 22 -12 48 -11 59 15 132 16 153 1 200 -14
46 -14 48 1 30 l16 -20 -8 20 c-4 11 -8 26 -8 33 0 6 -4 12 -8 12 -4 0 -10 -6
-12 -12 -3 -7 -5 14 -5 47 1 33 -3 80 -7 105 -5 25 -9 50 -10 55 -1 9 -5 22
-25 72 -5 12 -12 59 -15 105 -10 144 -14 161 -59 270 -42 101 -68 145 -126
211 -38 44 -135 104 -178 112 -22 3 -61 17 -87 31 -51 25 -80 27 -195 14z
m100 -135 c0 -2 -10 -10 -22 -16 -21 -11 -22 -11 -9 4 13 16 31 23 31 12z
m627 -1027 c-3 -7 -5 -2 -5 12 0 14 2 19 5 13 2 -7 2 -19 0 -25z m-963 -1515
c4 -9 0 -23 -8 -32 -14 -13 -16 -13 -22 2 -7 20 1 47 15 47 5 0 12 -8 15 -17z"/>
<path d="M1373 3442 c-53 -8 -3 -41 62 -42 73 0 120 -17 149 -51 16 -19 26
-25 26 -16 0 20 -56 76 -89 89 -33 13 -119 24 -148 20z"/>
<path d="M1362 3353 c-12 -2 -20 -9 -17 -14 4 -5 1 -9 -4 -9 -6 0 -11 -4 -11
-8 0 -4 16 -6 35 -4 27 3 35 1 35 -12 0 -19 36 -40 52 -30 6 4 17 -1 25 -12
12 -17 14 -17 30 -2 15 15 12 19 -33 47 -26 17 -57 31 -68 31 -17 0 -18 2 -6
10 13 9 13 10 0 8 -8 0 -25 -3 -38 -5z"/>
<path d="M1500 3310 c13 -11 26 -17 29 -14 7 6 -28 34 -42 34 -6 0 0 -9 13
-20z"/>
<path d="M1071 3161 c-24 -15 -4 -41 31 -41 27 1 30 2 16 11 -10 5 -21 16 -25
24 -5 9 -13 11 -22 6z"/>
<path d="M1152 3128 c5 -14 50 -40 57 -33 2 3 -4 14 -14 25 -20 22 -49 27 -43
8z"/>
<path d="M1092 3025 c6 -13 22 -26 36 -30 14 -3 38 -15 53 -26 37 -26 57 -25
33 2 -23 27 -82 64 -111 71 -19 5 -21 3 -11 -17z"/>
<path d="M669 2736 c-1 -6 -3 -27 -4 -46 -4 -61 -16 -124 -28 -148 -10 -20
-16 -22 -56 -17 -27 4 -41 3 -34 -2 7 -5 21 -34 32 -63 42 -121 67 -180 73
-174 4 3 4 -4 1 -17 -4 -15 -3 -20 5 -15 8 4 10 2 6 -8 -3 -8 -1 -23 5 -33 8
-14 11 -15 11 -3 1 8 17 -16 36 -54 19 -38 32 -71 30 -74 -3 -2 -17 21 -32 52
-15 31 -29 54 -31 52 -2 -2 13 -38 34 -80 25 -52 40 -72 46 -63 6 8 7 6 3 -5
-3 -10 3 -38 14 -63 15 -35 19 -67 18 -156 -1 -99 -2 -108 -14 -83 -13 31 -14
31 -19 -6 -12 -74 -13 -99 -5 -140 11 -59 -27 -562 -43 -572 -9 -6 -9 -10 -1
-15 6 -5 13 -15 16 -23 3 -10 13 -2 31 25 20 29 27 52 27 86 0 75 36 174 75
203 47 36 95 113 95 152 0 18 4 35 9 39 15 9 41 -36 41 -70 0 -23 3 -26 10
-15 5 8 7 29 4 45 -5 34 -12 82 -20 168 -5 45 -9 55 -19 47 -10 -8 -15 -8 -21
1 -4 7 -3 9 4 5 33 -20 38 334 6 499 -4 22 -3 26 5 15 18 -26 44 1 66 67 11
33 25 67 32 75 7 8 14 34 16 59 2 24 8 53 12 63 7 17 5 19 -23 13 -41 -8 -48
6 -23 42 24 33 25 50 11 119 l-11 49 -54 -5 c-51 -4 -55 -3 -55 17 0 22 -14
28 -25 11 -4 -6 -21 -8 -42 -4 -32 6 -35 5 -33 -17 6 -69 1 -86 -25 -86 -23 0
-24 1 -11 16 10 11 12 28 7 56 -7 44 -10 46 -34 26 -14 -11 -17 -11 -17 0 0
17 -99 71 -101 55z m59 -86 c1 -25 -5 -55 -18 -80 -11 -21 -20 -48 -20 -60 0
-12 -7 -20 -16 -20 -26 0 -14 120 17 165 13 19 26 35 29 35 3 0 6 -18 8 -40z
m37 2 c-3 -3 -11 0 -18 7 -9 10 -8 11 6 5 10 -3 15 -9 12 -12z m95 -87 c-14
-17 -30 -20 -30 -4 0 5 4 8 9 4 5 -3 12 -1 16 5 3 5 9 10 12 10 3 0 0 -7 -7
-15z m-133 -55 c-6 -16 -15 -30 -18 -30 -4 0 -2 14 4 30 6 17 15 30 18 30 4 0
2 -13 -4 -30z m317 5 c-7 -16 -24 -21 -24 -6 0 8 7 13 27 20 1 1 0 -6 -3 -14z
m-84 -97 c0 -6 3 -8 7 -5 11 11 43 -24 43 -48 0 -12 -13 -31 -30 -43 l-30 -23
-1 43 c-1 24 -3 53 -4 66 -1 12 2 22 6 22 5 0 9 -5 9 -12z m90 -93 c-7 -9 -15
-13 -17 -11 -7 7 7 26 19 26 6 0 6 -6 -2 -15z m-48 -77 c-7 -7 -10 -5 -7 8 5
29 6 30 12 16 3 -8 1 -18 -5 -24z m-34 -43 c-3 -3 -9 2 -12 12 -6 14 -5 15 5
6 7 -7 10 -15 7 -18z m1 -372 c0 -50 -3 -71 -8 -58 -5 11 -6 37 -4 58 3 29 1
37 -8 31 -7 -4 -10 -3 -7 2 3 5 8 17 11 27 12 34 17 16 16 -60z m8 -285 c-3
-7 -5 -2 -5 12 0 14 2 19 5 13 2 -7 2 -19 0 -25z"/>
<path d="M1126 2377 c3 -10 9 -15 12 -12 3 3 0 11 -7 18 -10 9 -11 8 -5 -6z"/>
<path d="M2103 1931 c31 -38 25 -51 -26 -51 -17 0 -26 -4 -22 -11 4 -6 19 -7
37 -4 35 8 48 -2 125 -97 30 -38 60 -68 67 -68 8 0 17 12 20 26 l7 25 58 -48
c187 -153 254 -213 328 -291 68 -71 80 -88 70 -101 -10 -12 -9 -13 8 -6 11 4
49 16 85 25 l65 17 -52 7 c-29 3 -55 11 -58 16 -4 6 -10 8 -15 5 -4 -3 -45 29
-90 70 -45 41 -86 75 -90 75 -5 0 -28 17 -52 38 -25 20 -68 57 -98 82 -30 25
-61 53 -69 62 -8 9 -18 15 -21 13 -4 -3 -18 7 -30 20 -13 14 -28 25 -34 25 -6
0 -17 9 -24 20 -7 12 -17 18 -23 15 -5 -4 -8 -3 -7 2 5 18 -14 52 -33 58 -11
4 -33 19 -48 34 -16 15 -46 38 -67 52 l-39 23 28 -33z"/>
<path d="M1044 1543 c2 -10 8 -37 11 -60 8 -52 14 -56 45 -33 l24 18 -38 46
c-40 49 -50 56 -42 29z"/>
<path d="M1148 1004 c-38 -20 -36 -28 2 -9 17 9 30 18 30 20 0 7 -1 6 -32 -11z"/>
<path d="M1340 990 c0 -5 5 -10 10 -10 6 0 10 5 10 10 0 6 -4 10 -10 10 -5 0
-10 -4 -10 -10z"/>
<path d="M1149 883 c-41 -35 -98 -63 -131 -63 -25 0 -86 -34 -104 -58 -6 -8
-9 -23 -7 -33 3 -9 -2 -33 -11 -53 -9 -20 -23 -52 -32 -72 -23 -52 0 -86 34
-52 9 9 12 7 12 -8 0 -12 3 -24 7 -28 4 -3 8 -16 10 -28 2 -12 18 -40 35 -62
38 -48 194 -194 223 -208 11 -5 7 1 -10 14 -48 36 -105 92 -105 102 0 5 6 4
13 -1 24 -20 44 -11 42 19 -4 64 -5 68 -25 68 -18 0 -20 7 -20 60 0 46 4 64
20 80 20 20 20 33 -1 127 -17 77 16 153 68 153 29 0 37 -13 199 -310 10 -19
11 -26 1 -32 -8 -5 -7 -8 5 -8 18 0 34 -51 22 -72 -4 -7 3 -3 16 8 l22 21 -42
69 c-24 38 -55 92 -70 119 -14 28 -46 85 -70 129 -24 43 -49 94 -55 113 l-12
35 -34 -29z m-153 -409 c6 -7 19 -14 28 -14 12 0 16 -10 16 -45 0 -25 -4 -45
-9 -45 -15 0 -82 80 -76 90 4 6 2 10 -3 10 -6 0 -13 7 -16 16 -5 13 -1 15 21
10 16 -4 33 -14 39 -22z"/>
<path d="M674 883 c-11 -12 -13 -18 -5 -21 19 -6 41 6 41 23 0 20 -14 19 -36
-2z"/>
<path d="M1390 626 c0 -11 40 -86 45 -86 3 0 -4 19 -16 43 -23 45 -29 54 -29
43z"/>
<path d="M1632 580 c-12 -20 -12 -21 18 -5 34 18 38 25 12 25 -9 0 -23 -9 -30
-20z"/>
<path d="M1457 494 c3 -7 9 -14 14 -14 14 0 10 17 -5 23 -10 4 -13 1 -9 -9z"/>
<path d="M1670 463 c-8 -3 -55 -25 -105 -49 -99 -49 -111 -51 -143 -28 -21 15
-22 14 -22 -13 0 -16 -13 -50 -29 -75 -28 -45 -29 -46 -8 -47 78 -3 97 0 144
23 29 14 56 26 60 26 7 0 68 58 149 143 l27 27 -29 -1 c-16 0 -36 -3 -44 -6z"/>
<path d="M1210 206 c0 -3 9 -10 20 -16 11 -6 20 -8 20 -6 0 3 -9 10 -20 16
-11 6 -20 8 -20 6z"/>
<path d="M1555 175 c-82 -39 -83 -46 -1 -10 31 14 63 25 71 25 7 0 17 5 20 10
11 18 -19 10 -90 -25z"/>
<path d="M1360 150 c-9 -6 -6 -10 11 -15 13 -4 44 -17 69 -28 25 -11 71 -22
102 -25 48 -4 66 0 120 26 35 17 72 33 83 36 11 2 -5 3 -35 2 -30 -2 -81 -12
-113 -21 -56 -18 -58 -18 -105 3 -54 24 -113 34 -132 22z"/>
<path d="M1772 90 c-52 -38 -57 -63 -8 -44 18 7 71 74 58 74 -5 0 -28 -14 -50
-30z"/>
<path d="M1480 52 c0 -14 57 -33 110 -37 41 -4 48 -3 25 4 -16 4 -54 15 -82
24 -29 9 -53 13 -53 9z"/>
<path d="M1670 10 c-11 -7 -4 -10 25 -9 31 0 36 2 20 9 -26 11 -28 11 -45 0z"/>
</g>
</svg>
